<?xml version="1.0" standalone="no"?>
<!DOCTYPE svg PUBLIC "-//W3C//DTD SVG 20010904//EN"
        "http://www.w3.org/TR/2001/REC-SVG-20010904/DTD/svg10.dtd">
<svg version="1.0" xmlns="http://www.w3.org/2000/svg"
     width="1024.000000pt" height="1024.000000pt" viewBox="0 0 1024.000000 1024.000000"
     preserveAspectRatio="xMidYMid meet">

    <g transform="translate(0.000000,1024.000000) scale(0.100000,-0.100000)"
       fill="#5A9F61">
        <path d="M2105 9589 c-192 -12 -388 -51 -528 -104 -109 -40 -229 -104 -221
-117 4 -7 3 -8 -4 -4 -14 8 -43 -9 -148 -91 -159 -122 -317 -320 -404 -505
-91 -194 -135 -385 -151 -657 -7 -117 -9 -1161 -7 -3111 l4 -2935 21 -130 c41
-239 109 -443 200 -596 58 -98 117 -175 131 -172 6 2 9 -3 6 -10 -2 -7 33 -49
78 -94 233 -229 509 -354 893 -405 81 -10 688 -13 3150 -13 2890 0 3056 1
3170 18 367 55 628 176 861 400 59 55 93 96 90 104 -3 8 -1 11 4 8 16 -10 108
125 174 256 68 136 113 276 148 459 l22 115 4 3040 c2 2137 0 3074 -8 3155
-22 231 -83 458 -171 629 -55 107 -145 235 -159 226 -5 -3 -12 0 -16 6 -4 8
-3 9 4 5 7 -4 12 -3 12 1 0 16 -116 124 -125 116 -4 -5 -5 -3 -1 4 4 7 -18 32
-56 64 -169 141 -390 248 -609 294 -241 52 -49 49 -3264 51 -1639 1 -3034 -2
-3100 -7z m6013 -16 c-16 -2 -40 -2 -55 0 -16 2 -3 4 27 4 30 0 43 -2 28 -4z
m-6070 -10 c-10 -2 -28 -2 -40 0 -13 2 -5 4 17 4 22 1 32 -1 23 -4z m6200 0
c-10 -2 -26 -2 -35 0 -10 3 -2 5 17 5 19 0 27 -2 18 -5z m-6295 -10 c-7 -2
-19 -2 -25 0 -7 3 -2 5 12 5 14 0 19 -2 13 -5z m6380 0 c-7 -2 -19 -2 -25 0
-7 3 -2 5 12 5 14 0 19 -2 13 -5z m-6446 -9 c-3 -3 -12 -4 -19 -1 -8 3 -5 6 6
6 11 1 17 -2 13 -5z m6510 0 c-3 -3 -12 -4 -19 -1 -8 3 -5 6 6 6 11 1 17 -2
13 -5z m-6560 -10 c-3 -3 -12 -4 -19 -1 -8 3 -5 6 6 6 11 1 17 -2 13 -5z
m6610 0 c-3 -3 -12 -4 -19 -1 -8 3 -5 6 6 6 11 1 17 -2 13 -5z m50 -10 c-3 -3
-12 -4 -19 -1 -8 3 -5 6 6 6 11 1 17 -2 13 -5z m253 -84 c8 -5 11 -10 5 -10
-5 0 -17 5 -25 10 -8 5 -10 10 -5 10 6 0 17 -5 25 -10z m105 -58 c-3 -3 -11 0
-18 7 -9 10 -8 11 6 5 10 -3 15 -9 12 -12z m-7705 -175 c0 -2 -10 -12 -22 -23
l-23 -19 19 23 c18 21 26 27 26 19z m8210 -297 c6 -11 8 -20 6 -20 -3 0 -10 9
-16 20 -6 11 -8 20 -6 20 3 0 10 -9 16 -20z m-8633 -402 c-3 -8 -6 -5 -6 6 -1
11 2 17 5 13 3 -3 4 -12 1 -19z m-10 -40 c-3 -8 -6 -5 -6 6 -1 11 2 17 5 13 3
-3 4 -12 1 -19z m4521 -55 c-10 -2 -28 -2 -40 0 -13 2 -5 4 17 4 22 1 32 -1
23 -4z m4309 -15 c-3 -8 -6 -5 -6 6 -1 11 2 17 5 13 3 -3 4 -12 1 -19z m-4594
5 c-7 -2 -19 -2 -25 0 -7 3 -2 5 12 5 14 0 19 -2 13 -5z m432 -38 c124 -36
199 -79 275 -155 109 -108 170 -263 157 -400 l-5 -59 46 -7 c26 -3 101 -17
167 -31 587 -120 1085 -370 1456 -730 58 -57 109 -100 114 -95 4 4 5 2 1 -5
-4 -7 9 -33 29 -59 20 -26 44 -63 55 -83 16 -33 24 -38 81 -50 77 -15 103 -28
173 -85 30 -25 56 -43 59 -40 2 2 10 -4 18 -13 13 -16 12 -17 -3 -4 -28 21
-21 2 13 -37 17 -20 38 -50 45 -68 19 -44 18 -185 -1 -257 -16 -60 -67 -171
-85 -182 -21 -13 -8 -20 33 -17 72 6 212 -24 291 -61 127 -60 245 -190 297
-326 52 -138 6 -321 -115 -449 -64 -69 -139 -118 -253 -167 -48 -20 -91 -40
-94 -44 -4 -3 -3 -33 2 -66 5 -33 13 -127 18 -209 34 -509 -113 -999 -420
-1409 -61 -81 -68 -93 -46 -81 7 4 9 3 4 -2 -5 -5 -12 -9 -16 -9 -12 0 -251
-251 -245 -257 2 -3 -4 -11 -13 -19 -16 -13 -17 -12 -4 4 23 29 -2 18 -41 -18
l-38 -35 47 -177 c45 -169 47 -184 48 -313 0 -150 -14 -206 -74 -296 -17 -25
-28 -51 -25 -57 4 -7 4 -9 -1 -5 -4 4 -33 -15 -64 -43 -31 -28 -83 -64 -116
-80 -159 -78 -297 -79 -460 0 -101 48 -152 94 -310 280 l-126 149 -55 -18
c-128 -44 -420 -97 -679 -122 -168 -16 -633 -16 -800 0 -263 26 -521 71 -668
116 l-76 23 -112 -134 c-62 -73 -140 -159 -173 -191 -230 -214 -537 -214 -752
2 -89 89 -130 169 -145 288 -14 104 -4 178 57 413 l44 170 -48 40 c-82 69
-231 217 -289 287 -30 38 -59 66 -63 63 -5 -3 -12 0 -16 6 -5 8 -3 9 6 4 18
-11 13 -2 -69 120 -143 213 -256 482 -306 727 -52 262 -57 449 -19 789 l6 56
-125 61 c-198 97 -299 206 -341 368 -33 130 -13 235 68 354 118 172 280 262
476 264 l87 1 -24 39 c-58 91 -85 187 -85 299 0 101 27 157 117 249 73 74 122
102 208 119 53 11 59 15 83 58 15 25 42 68 61 94 18 26 31 53 27 59 -4 6 -3 8
3 5 5 -3 40 28 78 70 183 202 503 412 839 552 209 87 517 171 776 211 l75 12
-4 79 c-10 226 152 445 387 523 115 38 172 45 337 42 127 -3 164 -8 240 -31z
m-28 29 c-3 -3 -12 -4 -19 -1 -8 3 -5 6 6 6 11 1 17 -2 13 -5z m4200 -66 c-3
-7 -5 -2 -5 12 0 14 2 19 5 13 2 -7 2 -19 0 -25z m-4837 8 c0 -2 -7 -7 -16
-10 -8 -3 -12 -2 -9 4 6 10 25 14 25 6z m-4033 -28 c-3 -8 -6 -5 -6 6 -1 11 2
17 5 13 3 -3 4 -12 1 -19z m3973 -2 c0 -2 -8 -10 -17 -17 -16 -13 -17 -12 -4
4 13 16 21 21 21 13z m4907 -43 c-3 -10 -5 -4 -5 12 0 17 2 24 5 18 2 -7 2
-21 0 -30z m-8890 -45 c-3 -7 -5 -2 -5 12 0 14 2 19 5 13 2 -7 2 -19 0 -25z
m8900 -55 c-3 -10 -5 -4 -5 12 0 17 2 24 5 18 2 -7 2 -21 0 -30z m-8910 -25
c-3 -8 -6 -5 -6 6 -1 11 2 17 5 13 3 -3 4 -12 1 -19z m0 -55 c-3 -10 -5 -4 -5
12 0 17 2 24 5 18 2 -7 2 -21 0 -30z m3740 -175 c-3 -8 -6 -5 -6 6 -1 11 2 17
5 13 3 -3 4 -12 1 -19z m1430 -30 c-3 -7 -5 -2 -5 12 0 14 2 19 5 13 2 -7 2
-19 0 -25z m-1434 -115 c-7 -2 -19 -2 -25 0 -7 3 -2 5 12 5 14 0 19 -2 13 -5z
m-56 -9 c-3 -3 -12 -4 -19 -1 -8 3 -5 6 6 6 11 1 17 -2 13 -5z m1570 0 c-3 -3
-12 -4 -19 -1 -8 3 -5 6 6 6 11 1 17 -2 13 -5z m-1634 -11 c-7 -2 -19 -2 -25
0 -7 3 -2 5 12 5 14 0 19 -2 13 -5z m1694 1 c-3 -3 -12 -4 -19 -1 -8 3 -5 6 6
6 11 1 17 -2 13 -5z m50 -10 c-3 -3 -12 -4 -19 -1 -8 3 -5 6 6 6 11 1 17 -2
13 -5z m90 -20 c-3 -3 -12 -4 -19 -1 -8 3 -5 6 6 6 11 1 17 -2 13 -5z m-2242
-64 c-11 -5 -27 -9 -35 -9 -9 0 -8 4 5 9 11 5 27 9 35 9 9 0 8 -4 -5 -9z
m2835 -130 c8 -5 11 -10 5 -10 -5 0 -17 5 -25 10 -8 5 -10 10 -5 10 6 0 17 -5
25 -10z m571 -337 c13 -16 12 -17 -3 -4 -10 7 -18 15 -18 17 0 8 8 3 21 -13z
m190 -160 c13 -16 12 -17 -3 -4 -10 7 -18 15 -18 17 0 8 8 3 21 -13z m260
-311 c-7 -2 -18 1 -23 6 -8 8 -4 9 13 5 13 -4 18 -8 10 -11z m66 -8 c-3 -3
-12 -4 -19 -1 -8 3 -5 6 6 6 11 1 17 -2 13 -5z m-5650 -306 c-3 -8 -6 -5 -6 6
-1 11 2 17 5 13 3 -3 4 -12 1 -19z m-10 -95 c-3 -10 -5 -4 -5 12 0 17 2 24 5
18 2 -7 2 -21 0 -30z m10 -75 c-3 -8 -6 -5 -6 6 -1 11 2 17 5 13 3 -3 4 -12 1
-19z m5950 0 c-3 -8 -6 -5 -6 6 -1 11 2 17 5 13 3 -3 4 -12 1 -19z m-10 -40
c-3 -8 -6 -5 -6 6 -1 11 2 17 5 13 3 -3 4 -12 1 -19z m-5869 -185 c-15 -2 -42
-2 -60 0 -18 2 -6 4 27 4 33 0 48 -2 33 -4z m5855 0 c-13 -2 -35 -2 -50 0 -16
2 -5 4 22 4 28 0 40 -2 28 -4z m-5976 -9 c-3 -3 -12 -4 -19 -1 -8 3 -5 6 6 6
11 1 17 -2 13 -5z m6060 0 c-3 -3 -12 -4 -19 -1 -8 3 -5 6 6 6 11 1 17 -2 13
-5z m-6140 -20 c-3 -3 -12 -4 -19 -1 -8 3 -5 6 6 6 11 1 17 -2 13 -5z m-57
-18 c0 -2 -7 -7 -16 -10 -8 -3 -12 -2 -9 4 6 10 25 14 25 6z m6345 -6 c3 -6
-1 -7 -9 -4 -18 7 -21 14 -7 14 6 0 13 -4 16 -10z m303 -315 c-3 -3 -9 2 -12
12 -6 14 -5 15 5 6 7 -7 10 -15 7 -18z m-7001 -217 c-3 -7 -5 -2 -5 12 0 14 2
19 5 13 2 -7 2 -19 0 -25z m7030 -20 c-3 -8 -6 -5 -6 6 -1 11 2 17 5 13 3 -3
4 -12 1 -19z m-6767 -365 c0 -7 -39 17 -46 28 -3 6 5 3 20 -6 14 -10 26 -19
26 -22z m75 -41 c-3 -3 -11 0 -18 7 -9 10 -8 11 6 5 10 -3 15 -9 12 -12z m143
-77 c-3 -3 -9 2 -12 12 -6 14 -5 15 5 6 7 -7 10 -15 7 -18z m6069 -27 c-3 -7
-5 -2 -5 12 0 14 2 19 5 13 2 -7 2 -19 0 -25z m-6080 -45 c-3 -10 -5 -4 -5 12
0 17 2 24 5 18 2 -7 2 -21 0 -30z m6090 -35 c-3 -7 -5 -2 -5 12 0 14 2 19 5
13 2 -7 2 -19 0 -25z m-6100 -45 c-3 -10 -5 -4 -5 12 0 17 2 24 5 18 2 -7 2
-21 0 -30z m6110 -60 c-3 -10 -5 -2 -5 17 0 19 2 27 5 18 2 -10 2 -26 0 -35z
m-6120 -120 c-2 -21 -4 -6 -4 32 0 39 2 55 4 38 2 -18 2 -50 0 -70z m6130
-125 c-2 -13 -4 -3 -4 22 0 25 2 35 4 23 2 -13 2 -33 0 -45z m-6130 -45 c-2
-16 -4 -3 -4 27 0 30 2 43 4 28 2 -16 2 -40 0 -55z m6120 -100 c-3 -10 -5 -2
-5 17 0 19 2 27 5 18 2 -10 2 -26 0 -35z m-6110 -35 c-3 -8 -6 -5 -6 6 -1 11
2 17 5 13 3 -3 4 -12 1 -19z m6100 -50 c-3 -7 -5 -2 -5 12 0 14 2 19 5 13 2
-7 2 -19 0 -25z m-6090 -25 c-3 -10 -5 -4 -5 12 0 17 2 24 5 18 2 -7 2 -21 0
-30z m6080 -35 c-3 -8 -6 -5 -6 6 -1 11 2 17 5 13 3 -3 4 -12 1 -19z m-6070
-30 c-3 -8 -6 -5 -6 6 -1 11 2 17 5 13 3 -3 4 -12 1 -19z m10 -50 c-3 -8 -6
-5 -6 6 -1 11 2 17 5 13 3 -3 4 -12 1 -19z m6040 -20 c-3 -8 -6 -5 -6 6 -1 11
2 17 5 13 3 -3 4 -12 1 -19z m-5883 -434 c3 -8 2 -12 -4 -9 -6 3 -10 10 -10
16 0 14 7 11 14 -7z m51 -104 c9 -16 13 -30 11 -30 -3 0 -12 14 -21 30 -9 17
-13 30 -11 30 3 0 12 -13 21 -30z m572 -722 c-3 -8 -6 -5 -6 6 -1 11 2 17 5
13 3 -3 4 -12 1 -19z m4550 -230 c-3 -8 -6 -5 -6 6 -1 11 2 17 5 13 3 -3 4
-12 1 -19z m-4620 -40 c-3 -8 -6 -5 -6 6 -1 11 2 17 5 13 3 -3 4 -12 1 -19z
m4630 0 c-3 -8 -6 -5 -6 6 -1 11 2 17 5 13 3 -3 4 -12 1 -19z m-4640 -40 c-3
-8 -6 -5 -6 6 -1 11 2 17 5 13 3 -3 4 -12 1 -19z m4650 -10 c-3 -8 -6 -5 -6 6
-1 11 2 17 5 13 3 -3 4 -12 1 -19z m-4660 -40 c-3 -8 -6 -5 -6 6 -1 11 2 17 5
13 3 -3 4 -12 1 -19z m4670 -10 c-3 -8 -6 -5 -6 6 -1 11 2 17 5 13 3 -3 4 -12
1 -19z m-4680 -125 c-2 -16 -4 -5 -4 22 0 28 2 40 4 28 2 -13 2 -35 0 -50z
m4680 -65 c-3 -8 -6 -5 -6 6 -1 11 2 17 5 13 3 -3 4 -12 1 -19z m-3390 6 c-3
-3 -12 -4 -19 -1 -8 3 -5 6 6 6 11 1 17 -2 13 -5z m-1280 -36 c-3 -8 -6 -5 -6
6 -1 11 2 17 5 13 3 -3 4 -12 1 -19z m1490 -14 c-3 -3 -12 -4 -19 -1 -8 3 -5
6 6 6 11 1 17 -2 13 -5z m2054 -11 c13 -16 12 -17 -3 -4 -10 7 -18 15 -18 17
0 8 8 3 21 -13z m-1938 -10 c-7 -2 -21 -2 -30 0 -10 3 -4 5 12 5 17 0 24 -2
18 -5z m64 -9 c-3 -3 -12 -4 -19 -1 -8 3 -5 6 6 6 11 1 17 -2 13 -5z m66 -11
c-7 -2 -21 -2 -30 0 -10 3 -4 5 12 5 17 0 24 -2 18 -5z m80 -10 c-7 -2 -19 -2
-25 0 -7 3 -2 5 12 5 14 0 19 -2 13 -5z m1070 0 c-7 -2 -21 -2 -30 0 -10 3 -4
5 12 5 17 0 24 -2 18 -5z m-970 -10 c-7 -2 -19 -2 -25 0 -7 3 -2 5 12 5 14 0
19 -2 13 -5z m880 0 c-7 -2 -19 -2 -25 0 -7 3 -2 5 12 5 14 0 19 -2 13 -5z
m-740 -10 c-13 -2 -33 -2 -45 0 -13 2 -3 4 22 4 25 0 35 -2 23 -4z m635 0
c-16 -2 -40 -2 -55 0 -16 2 -3 4 27 4 30 0 43 -2 28 -4z m-335 -10 c-34 -2
-93 -2 -130 0 -37 2 -9 3 62 3 72 0 102 -1 68 -3z m140 0 c-13 -2 -35 -2 -50
0 -16 2 -5 4 22 4 28 0 40 -2 28 -4z m-4606 -110 c-3 -10 -5 -4 -5 12 0 17 2
24 5 18 2 -7 2 -21 0 -30z m8890 -45 c-3 -8 -6 -5 -6 6 -1 11 2 17 5 13 3 -3
4 -12 1 -19z m-5867 -22 c0 -2 -8 -10 -17 -17 -16 -13 -17 -12 -4 4 13 16 21
21 21 13z m5857 -53 c-3 -10 -5 -4 -5 12 0 17 2 24 5 18 2 -7 2 -21 0 -30z
m-8860 -25 c-3 -8 -6 -5 -6 6 -1 11 2 17 5 13 3 -3 4 -12 1 -19z m5968 -6 c-3
-3 -11 0 -18 7 -9 10 -8 11 6 5 10 -3 15 -9 12 -12z m-3110 -12 c-3 -5 -12
-10 -18 -10 -7 0 -6 4 3 10 19 12 23 12 15 0z m5992 -12 c-3 -8 -6 -5 -6 6 -1
11 2 17 5 13 3 -3 4 -12 1 -19z m-8840 -20 c-3 -8 -6 -5 -6 6 -1 11 2 17 5 13
3 -3 4 -12 1 -19z m8830 -30 c-3 -8 -6 -5 -6 6 -1 11 2 17 5 13 3 -3 4 -12 1
-19z m-6254 5 c-7 -2 -21 -2 -30 0 -10 3 -4 5 12 5 17 0 24 -2 18 -5z m100 0
c-7 -2 -21 -2 -30 0 -10 3 -4 5 12 5 17 0 24 -2 18 -5z m3514 1 c-3 -3 -12 -4
-19 -1 -8 3 -5 6 6 6 11 1 17 -2 13 -5z m96 -1 c-7 -2 -19 -2 -25 0 -7 3 -2 5
12 5 14 0 19 -2 13 -5z m1534 -1069 c-3 -3 -12 -4 -19 -1 -8 3 -5 6 6 6 11 1
17 -2 13 -5z m-80 -20 c-3 -3 -12 -4 -19 -1 -8 3 -5 6 6 6 11 1 17 -2 13 -5z
m-60 -10 c-3 -3 -12 -4 -19 -1 -8 3 -5 6 6 6 11 1 17 -2 13 -5z m-6454 -11
c-7 -2 -19 -2 -25 0 -7 3 -2 5 12 5 14 0 19 -2 13 -5z m6404 1 c-3 -3 -12 -4
-19 -1 -8 3 -5 6 6 6 11 1 17 -2 13 -5z m-6309 -11 c-10 -2 -28 -2 -40 0 -13
2 -5 4 17 4 22 1 32 -1 23 -4z m6230 0 c-10 -2 -26 -2 -35 0 -10 3 -2 5 17 5
19 0 27 -2 18 -5z m-6110 -10 c-10 -2 -26 -2 -35 0 -10 3 -2 5 17 5 19 0 27
-2 18 -5z m5985 0 c-7 -2 -21 -2 -30 0 -10 3 -4 5 12 5 17 0 24 -2 18 -5z"/>
        <path d="M4980 8109 c-71 -14 -165 -65 -208 -114 -46 -52 -62 -100 -62 -187 0
-81 34 -153 96 -204 48 -39 54 -58 26 -73 -10 -5 -162 -30 -338 -56 -175 -25
-371 -57 -434 -71 -318 -72 -655 -223 -899 -404 -144 -107 -296 -273 -376
-412 l-27 -48 2356 0 c1420 0 2356 4 2356 9 0 27 -118 179 -210 272 -211 214
-481 374 -830 494 -204 69 -381 110 -710 160 -168 26 -313 51 -322 56 -28 15
-22 31 32 77 73 63 95 110 95 202 -1 58 -6 86 -23 122 -39 79 -128 142 -249
173 -62 16 -200 18 -273 4z" fill="#4B514B"/>
        <path d="M2457 6358 c-38 -52 -39 -53 -16 -120 28 -82 80 -137 165 -173 73
-31 80 -45 71 -127 -6 -51 -118 -301 -125 -279 -2 6 -8 9 -13 6 -5 -3 -44 5
-86 18 -268 85 -401 73 -510 -46 -51 -55 -60 -72 -74 -136 -10 -46 -8 -56 14
-105 31 -67 92 -127 163 -161 30 -14 121 -45 202 -67 81 -23 148 -42 149 -42
0 -1 -7 -39 -18 -86 -64 -298 -66 -647 -4 -940 53 -253 200 -550 382 -772 76
-94 232 -241 336 -318 l88 -65 -6 -45 c-8 -55 -34 -152 -87 -325 -44 -144 -60
-275 -39 -337 16 -48 73 -113 128 -145 36 -21 63 -27 124 -31 74 -4 84 -2 144
27 52 26 81 51 146 124 83 94 161 190 247 307 38 51 53 65 72 63 14 0 81 -19
150 -41 294 -94 670 -142 1112 -142 418 0 731 46 1048 153 l125 43 95 -127
c52 -70 140 -178 196 -241 128 -144 162 -163 289 -163 80 0 95 3 136 27 56 33
95 77 122 137 31 70 20 170 -41 371 -61 201 -82 280 -82 313 0 20 15 36 68 73
88 63 298 268 377 369 265 338 405 746 405 1178 0 149 -22 357 -51 495 -11 52
-19 95 -17 96 2 2 66 20 143 40 166 44 233 74 298 135 98 91 114 172 58 278
-35 65 -65 94 -141 134 -39 21 -57 24 -145 23 -82 -1 -123 -8 -225 -37 -69
-19 -130 -37 -137 -39 -7 -2 -36 47 -70 117 -47 97 -58 131 -61 182 -5 75 2
86 69 108 76 26 135 86 163 170 23 66 24 71 8 98 -35 58 -31 58 -217 42 -142
-12 -543 -15 -2441 -15 -2075 0 -2463 4 -2621 25 -38 6 -43 3 -66 -27z m2758
-663 c297 -62 495 -338 454 -631 -31 -225 -192 -464 -311 -464 -57 0 -98 43
-98 102 0 39 5 48 54 96 129 128 173 340 101 487 -35 72 -128 158 -197 181
-152 52 -317 -22 -400 -177 -20 -39 -23 -57 -23 -164 0 -118 1 -121 37 -198
26 -54 55 -95 93 -132 49 -48 55 -59 55 -95 0 -57 -42 -100 -98 -100 -140 0
-323 307 -322 542 1 280 208 516 489 557 81 12 89 12 166 -4z m-50 -1359 c63
-27 65 -40 65 -376 0 -254 -2 -307 -16 -335 -16 -33 -65 -65 -101 -65 -29 0
-83 38 -93 66 -6 14 -10 156 -10 330 0 338 2 353 63 379 41 18 50 18 92 1z" fill="#4B514B" />
    </g>
</svg>
